<svg xmlns="http://www.w3.org/2000/svg" viewBox="0 0 1001.04 105"><defs><style>.cls-1{fill:#fff;}.cls-2{fill:#f8a962;}.cls-3{fill:#67a0e6;}.cls-4{fill:#2760a7;}.cls-5{fill:#68cedd;}.cls-6{fill:#03aec7;}.cls-7{fill:#3480de;}.cls-8{fill:#f68d2e;}</style></defs><title>horizon-logo</title><g id="Layer_2" data-name="Layer 2"><g id="guides"><path class="cls-1" d="M173.84,67.17a22.23,22.23,0,0,0,9.46-1.84,32.74,32.74,0,0,0,8.29-5.88l6.85,7q-10,11-24.28,11t-23.7-9.16Q141,59.18,141,45.18t9.6-23.34q9.6-9.35,24.24-9.34a31.75,31.75,0,0,1,24.46,10.77l-6.76,7.36a29.44,29.44,0,0,0-8.51-6,23.86,23.86,0,0,0-9.42-1.71,22.44,22.44,0,0,0-16,6.15,20.69,20.69,0,0,0-6.49,15.72,21.61,21.61,0,0,0,6.44,16,20.9,20.9,0,0,0,15.27,6.42"/><polygon class="cls-1" points="229.44 76.78 229.44 14.02 240.07 14.02 240.07 66.72 268.82 66.72 268.82 76.78 229.44 76.78"/><path class="cls-1" d="M310,62.5l-6.3,14.28H292.31L320.06,14h11.35l27.76,62.76H347.81l-6.3-14.28Zm27.22-9.78L325.74,26.87,314.29,52.72Z"/><path class="cls-1" d="M436.2,34.4q0,15.54-13.6,19.57l16.49,22.81H425.57l-15.05-21.1h-14v21.1H385.93V14h23.42q14.41,0,20.64,4.85T436.2,34.4m-14.14,8.89q3.24-2.77,3.24-8.93T422,25.92q-3.33-2.3-11.89-2.29H396.56V46.07h13.25q9,0,12.25-2.78"/><path class="cls-1" d="M481.05,62.5l-6.3,14.28H463.39L491.14,14H502.5l27.75,62.76H518.9L512.59,62.5Zm27.21-9.78L496.82,26.87,485.38,52.72Z"/><path class="cls-1" d="M586.38,76.78H558.81V14h24.51a35.73,35.73,0,0,1,11,1.52,15.13,15.13,0,0,1,6.89,4.13,16,16,0,0,1,4.33,11q0,7.36-4.69,11a21.84,21.84,0,0,1-2.34,1.57c-.42.21-1.17.55-2.26,1a16.54,16.54,0,0,1,9.33,5.25,14.55,14.55,0,0,1,3.47,9.92,16.84,16.84,0,0,1-4.5,11.58q-5.33,5.85-18.21,5.84M569.45,40.06H583q11.53,0,11.53-7.81,0-4.48-2.79-6.47t-8.65-2h-13.6Zm0,26.93h16.67q5.85,0,9-1.84c2.08-1.22,3.11-3.54,3.11-7q0-8.36-13.42-8.35H569.45Z"/><path class="cls-1" d="M694.33,34.4q0,15.54-13.6,19.57l16.48,22.81H683.7l-15.05-21.1h-14v21.1H644.05V14h23.43q14.41,0,20.63,4.85t6.22,15.53m-14.14,8.89q3.24-2.77,3.24-8.93t-3.34-8.44q-3.33-2.3-11.89-2.29H654.68V46.07h13.25q9,0,12.26-2.78"/><rect class="cls-1" x="731.27" y="14.03" width="10.64" height="62.76"/><path class="cls-1" d="M828.67,22.24q9.12,8.22,9.11,22.85T829,68.25q-8.84,8.53-27,8.53H781V14h21.63q16.93,0,26,8.22m-1.61,23.12q0-21.54-24.78-21.55H791.64v43h11.81q11.44,0,17.52-5.42t6.09-16"/><path class="cls-1" d="M913.11,46.26h10.63V67.71q-8.93,9.78-25.5,9.79-14,0-23.38-9.16t-9.42-23.16q0-14,9.6-23.34a32,32,0,0,1,23.2-9.34q13.6,0,22.62,7.9l-5.68,8.08a22,22,0,0,0-7.44-4.35,28.14,28.14,0,0,0-8.69-1.22,22.47,22.47,0,0,0-16,6.15q-6.48,6.15-6.49,16.16t6.31,16.07a21.25,21.25,0,0,0,15.27,6.06q9,0,15-3.86Z"/><polygon class="cls-1" points="999.96 14.03 999.96 23.99 966.36 23.99 966.36 40.6 996.54 40.6 996.54 50.03 966.36 50.03 966.36 66.81 1001.04 66.81 1001.04 76.78 955.73 76.78 955.73 14.03 999.96 14.03"/><path class="cls-2" d="M28.77,39.85a23,23,0,0,1-1.89-9A22.39,22.39,0,0,1,27.65,25C12.22,25.72,0,34.91,0,46.17c0,6.33,3.87,12,10,15.89L4.66,76.79l17.67-10c.67.12,1.35.22,2,.31A24.38,24.38,0,0,1,22.1,56.89,26.14,26.14,0,0,1,28.77,39.85Z"/><path class="cls-3" d="M45.52,28.32a59.62,59.62,0,0,1,22-4.1c18.37,0,34.19,7.83,41.36,19.1a23.64,23.64,0,0,0,3.7-12.52c0-17-19.19-30.8-42.87-30.8C48.84,0,31.42,10.77,27.65,25c.64,0,1.27-.07,1.91-.07A38.12,38.12,0,0,1,45.52,28.32Z"/><path class="cls-4" d="M28.77,39.85A42.62,42.62,0,0,1,45.52,28.32a38.12,38.12,0,0,0-16-3.38c-.64,0-1.27,0-1.91.07a22.39,22.39,0,0,0-.77,5.79A23,23,0,0,0,28.77,39.85Z"/><path class="cls-5" d="M113,56.89a25.1,25.1,0,0,0-4.11-13.57c-5.69,9.18-17.45,16-31.61,17.8L74.56,74.58,64.36,61.35a56.07,56.07,0,0,1-11.42-2.22c-5.4,5-13.85,8.28-23.38,8.28a40.18,40.18,0,0,1-5.2-.35c5.95,13.06,23,22.49,43.21,22.49a62.91,62.91,0,0,0,10.49-.88l23,16.33L93.56,83.68C105.33,77.78,113,68,113,56.89Z"/><path class="cls-6" d="M52.94,59.13C41.41,55.6,32.49,48.55,28.77,39.85a26.14,26.14,0,0,0-6.67,17,24.38,24.38,0,0,0,2.26,10.17,40.18,40.18,0,0,0,5.2.35C39.09,67.41,47.54,64.16,52.94,59.13Z"/><path class="cls-7" d="M67.57,24.22a59.62,59.62,0,0,0-22,4.1c8.17,3.77,13.6,10.35,13.6,17.85,0,4.89-2.32,9.38-6.18,13a56.07,56.07,0,0,0,11.42,2.22l10.2,13.23,2.76-13.46c14.16-1.81,25.92-8.62,31.61-17.8C101.76,32.05,85.94,24.22,67.57,24.22Z"/><path class="cls-8" d="M59.12,46.17c0-7.5-5.43-14.08-13.6-17.85A42.62,42.62,0,0,0,28.77,39.85c3.72,8.7,12.64,15.75,24.17,19.28C56.8,55.55,59.12,51.06,59.12,46.17Z"/></g></g></svg>