<?xml version="1.0" encoding="utf-8"?>
<!-- Generator: Adobe Illustrator 19.2.1, SVG Export Plug-In . SVG Version: 6.00 Build 0)  -->
<svg version="1.1" id="Layer_1" xmlns="http://www.w3.org/2000/svg" xmlns:xlink="http://www.w3.org/1999/xlink" x="0px" y="0px"
	 viewBox="0 0 1200 450" style="enable-background:new 0 0 1200 450;" xml:space="preserve">
<style type="text/css">
	.st0{fill:#FFFFFF;}
</style>
<g>
	<path class="st0" d="M68.9,409.7c4.9,0,9.1-0.8,12.7-2.5c3.5-1.6,7.2-4.3,11.1-7.9l9.2,9.4c-8.9,9.8-19.7,14.8-32.5,14.8
		c-12.7,0-23.3-4.1-31.7-12.2c-8.4-8.2-12.6-18.5-12.6-31c0-12.5,4.3-22.9,12.8-31.2c8.6-8.3,19.4-12.5,32.4-12.5
		c13.1,0,24,4.8,32.7,14.4l-9,9.8c-4-3.8-7.8-6.5-11.4-8c-3.6-1.5-7.8-2.3-12.6-2.3c-8.5,0-15.7,2.7-21.4,8.2
		c-5.8,5.5-8.7,12.5-8.7,21s2.9,15.6,8.6,21.4C54.2,406.9,61,409.7,68.9,409.7"/>
	<polygon class="st0" points="143.2,422.6 143.2,338.7 157.4,338.7 157.4,409.1 195.9,409.1 195.9,422.6 	"/>
	<path class="st0" d="M250.9,403.5l-8.4,19.1h-15.2l37.1-83.9h15.2l37.1,83.9h-15.2l-8.4-19.1H250.9z M287.3,390.4L272,355.8
		l-15.3,34.6H287.3z"/>
	<path class="st0" d="M419.7,365.9c0,13.8-6.1,22.6-18.2,26.2l22,30.5h-18.1l-20.1-28.2h-18.7v28.2h-14.2v-83.9h31.3
		c12.8,0,22.1,2.2,27.6,6.5C416.9,349.5,419.7,356.4,419.7,365.9 M400.8,377.8c2.9-2.5,4.3-6.5,4.3-11.9c0-5.5-1.5-9.2-4.5-11.3
		c-3-2-8.3-3.1-15.9-3.1h-18.1v30h17.7C392.4,381.5,397.9,380.3,400.8,377.8"/>
	<path class="st0" d="M479.7,403.5l-8.4,19.1H456l37.1-83.9h15.2l37.1,83.9h-15.2l-8.4-19.1H479.7z M516.1,390.4l-15.3-34.6
		l-15.3,34.6H516.1z"/>
	<path class="st0" d="M620.5,422.6h-36.9v-83.9h32.8c5.7,0,10.6,0.7,14.8,2c4.1,1.4,7.2,3.2,9.2,5.5c3.9,4.3,5.8,9.2,5.8,14.6
		c0,6.6-2.1,11.5-6.3,14.6c-1.5,1.1-2.6,1.8-3.1,2.1c-0.6,0.3-1.6,0.7-3,1.4c5.2,1.1,9.4,3.5,12.5,7c3.1,3.6,4.6,8,4.6,13.3
		c0,5.8-2,11-6,15.5C640.1,420,632,422.6,620.5,422.6 M597.9,373.5h18.1c10.3,0,15.4-3.5,15.4-10.4c0-4-1.2-6.9-3.7-8.6
		c-2.5-1.8-6.3-2.6-11.6-2.6h-18.2V373.5z M597.9,409.5h22.3c5.2,0,9.2-0.8,12-2.5c2.8-1.6,4.2-4.7,4.2-9.3c0-7.4-6-11.2-17.9-11.2
		h-20.5V409.5z"/>
	<path class="st0" d="M764.9,365.9c0,13.8-6.1,22.6-18.2,26.2l22,30.5h-18.1l-20.1-28.2h-18.7v28.2h-14.2v-83.9H729
		c12.9,0,22.1,2.2,27.6,6.5C762.1,349.5,764.9,356.4,764.9,365.9 M746,377.8c2.9-2.5,4.3-6.5,4.3-11.9c0-5.5-1.5-9.2-4.5-11.3
		c-3-2-8.3-3.1-15.9-3.1h-18.1v30h17.7C737.6,381.5,743.1,380.3,746,377.8"/>
	<rect x="814.3" y="338.7" class="st0" width="14.2" height="83.9"/>
	<path class="st0" d="M944.5,349.7c8.1,7.3,12.2,17.5,12.2,30.6s-3.9,23.4-11.8,31c-7.9,7.6-19.9,11.4-36.1,11.4h-28v-83.9h28.9
		C924.8,338.7,936.4,342.3,944.5,349.7 M942.3,380.6c0-19.2-11-28.8-33.1-28.8H895v57.5h15.8c10.2,0,18-2.4,23.4-7.3
		C939.6,397.2,942.3,390,942.3,380.6"/>
	<path class="st0" d="M1057.4,381.8h14.2v28.7c-7.9,8.7-19.3,13.1-34.1,13.1c-12.5,0-22.9-4.1-31.3-12.2c-8.4-8.2-12.6-18.5-12.6-31
		c0-12.5,4.3-22.9,12.8-31.2c8.6-8.3,18.9-12.5,31-12.5s22.2,3.5,30.2,10.6l-7.6,10.8c-3.3-2.8-6.6-4.7-9.9-5.8
		c-3.3-1.1-7.2-1.6-11.6-1.6c-8.5,0-15.7,2.7-21.5,8.2c-5.8,5.5-8.7,12.7-8.7,21.6c0,8.9,2.8,16.1,8.4,21.5
		c5.6,5.4,12.4,8.1,20.4,8.1c8,0,14.7-1.7,20.1-5.2V381.8z"/>
	<polygon class="st0" points="1173.6,338.7 1173.6,352 1128.6,352 1128.6,374.2 1169,374.2 1169,386.8 1128.6,386.8 1128.6,409.3 
		1175,409.3 1175,422.6 1114.4,422.6 1114.4,338.7 	"/>
</g>
<g>
	<path class="st0" d="M505.2,172.2l-2-1.3c-14.1-9-22.3-21.8-22.3-35.1c0-23.9,25.5-43.9,58.7-46.9c-0.7,3.5-1,7-1,10.5
		c0,7.1,1.4,14.1,4,20.9c-10,12.3-15.3,26.4-15.3,40.9c0,6.9,1.2,13.7,3.6,20.3l-0.6-0.1l-35.7,20.3L505.2,172.2z"/>
	<path class="st0" d="M735.6,123.4c-19.1-26-56.8-42.6-97.7-42.6c-18.2,0-36.2,3.3-52.1,9.4c-11.4-5.1-24.5-7.7-37.9-7.7
		c-0.1,0-0.3,0-0.4,0c10.8-31,50.2-53.1,95.6-53.1c54.3,0,98.5,31.4,98.5,69.9C741.6,107.6,739.6,115.7,735.6,123.4z"/>
	<path class="st0" d="M547.1,115.2c-1.7-5.2-2.5-10.5-2.5-15.8c0-3.6,0.4-7.2,1.2-10.8c0.7,0,1.4-0.1,2.1-0.1
		c10.5,0,20.7,1.7,30.1,5.1C565.9,99.2,555.4,106.6,547.1,115.2z"/>
	<path class="st0" d="M663.5,233.2l-1.2,0.2c-8,1.4-16.2,2.1-24.3,2.1c-43.1,0-81.3-18.6-97.1-46.7c2.4,0.2,4.8,0.3,7.1,0.3
		c21.9,0,42.2-7,56.1-19.2c7.9,2.3,16.2,3.9,24.7,4.8l27.4,35.5l7.4-36.2c31.1-4.5,57.5-18.9,72.2-39.2c4.6,8.5,6.9,17.4,6.9,26.5
		c0,24.1-16.6,46.8-44.5,60.8l-2.4,1.2l15.5,44.1L663.5,233.2z"/>
	<path class="st0" d="M547.9,183.1c-3.3,0-6.8-0.2-10.3-0.6c-2.9-6.9-4.4-14.1-4.4-21.3c0-12.1,4.2-24.1,12.1-34.7
		c9.4,18.1,27.9,32.8,51.9,41.2C584.6,177.5,566.9,183.1,547.9,183.1z"/>
	<path class="st0" d="M631.9,168.9l-1.3-0.1c-7.4-0.7-14.6-1.9-21.6-3.8c7.8-8.7,11.9-18.7,11.9-29.2c0-16.5-10.3-31.8-27.8-41.8
		c13.9-4.7,29.3-7.2,44.8-7.2c40.2,0,76.9,16.5,94.4,42.2c-13.6,20.6-40.2,35.1-71.7,39.2l-2.1,0.3l-5.6,27.6L631.9,168.9z"/>
	<path class="st0" d="M602.5,163.1c-25.1-8.1-44.3-23.2-52.9-41.7c9.1-10.1,21.5-18.6,36.1-24.6c18.4,8.9,29.3,23.4,29.3,39
		C614.9,145.6,610.6,155,602.5,163.1z"/>
</g>
</svg>
